<?xml version="1.0" encoding="utf-8"?>
<!-- Generator: Adobe Illustrator 21.1.0, SVG Export Plug-In . SVG Version: 6.00 Build 0)  -->
<svg version="1.1" id="Lager_1" xmlns="http://www.w3.org/2000/svg" xmlns:xlink="http://www.w3.org/1999/xlink" x="0px" y="0px"
	 viewBox="0 0 116.5 43.6" style="enable-background:new 0 0 116.5 43.6;" xml:space="preserve">
<style type="text/css">
	.st0{fill:none;stroke:#000000;stroke-width:2;stroke-miterlimit:10;}
</style>
<rect x="81" y="14.1" width="34.6" height="8.7"/>
<rect x="81" y="0.6" width="34.6" height="8.2"/>
<g>
	<line class="st0" x1="0.9" y1="41.3" x2="115.6" y2="41.3"/>
</g>
<path d="M88.7,27.3L88.7,27.3l-12.1,0V0.6h-19l-5.5,8.9l0-0.1l-5.1,8.4l0,0L35.4,36.5h10.5l6.2-10.2l6.2,10.2h33.2h24.1v-9.2H88.7z
	 M67.3,34.2L57.2,17.9L67.3,1.2V34.2z"/>
<polygon points="25.2,13.7 33.2,0.6 23.1,0.6 0.9,36.5 11.4,36.5 19.9,22.4 38.5,22.4 41.5,18.1 38.5,13.7 "/>
<polygon points="41.5,0.6 36.6,0.8 45.8,15.9 50.9,7.6 46.6,0.6 "/>
</svg>
